{"title":"Dragon Ball Z: Battle of Gods (EngDub) 1080p Download","magnet":"magnet:?xt=urn:btih:8e2ad1c6a826172d623e0771e6cbdaed0abf3a80&dn=Dragon+Ball+Z%3A+Battle+of+Gods+%28EngDub%29+1080p+Download&tr=udp%3A%2F%2Ftracker.leechers-paradise.org%3A6969&tr=udp%3A%2F%2Fzer0day.ch%3A1337&tr=udp%3A%2F%2Fopen.demonii.com%3A1337&tr=udp%3A%2F%2Ftracker.coppersurfer.tk%3A6969&tr=udp%3A%2F%2Fexodus.desync.com%3A6969","uploader":"digimaza","categoryP":"video","categoryS":"movies","size":"3470458522","seeders":"21","leechers":"25","description":"Dragon Ball Z: Battle of Gods (EngDub) (Uncut) 1080p Download  <a href=\"\nhttp://i.imgur.com/GyytEhO.jpg\" rel=\"nofollow\" target=\"_NEW\">\nhttp://i.imgur.com/GyytEhO.jpg</a>\r\n\r\n..::File Specs::.. \r\nGeneral \r\n\r\nFormat : Matroska \r\nFormat version : Version 4 / Version 2 \r\nFile size : 3.23 GiB \r\nDuration : 1 h 45 min \r\nOverall bit rate : 4 405 kb/s \r\nMovie name : Dragon Ball Z Battle of Gods \r\n\r\n\r\nVideo \r\nID : 1 \r\nFormat : MPEG-4 Visual \r\nFormat profile : Advanced <a class=\"__cf_email__\" href=\"/cdn-cgi/l/email-protection\" data-cfemail=\"8ddee4e0fde1e8cdc1b8\">[email&#xA0;protected]</a><script data-cfhash=\"f9e31\" type=\"text/javascript\">/* <![CDATA[ */!function(t,e,r,n,c,a,p){try{t=document.currentScript||function(){for(t=document.getElementsByTagName('script'),e=t.length;e--;)if(t[e].getAttribute('data-cfhash'))return t[e]}();if(t&&(c=t.previousSibling)){p=t.parentNode;if(a=c.getAttribute('data-cfemail')){for(e='',r='0x'+a.substr(0,2)|0,n=2;a.length-n;n+=2)e+='%'+('0'+('0x'+a.substr(n,2)^r).toString(16)).slice(-2);p.replaceChild(document.createTextNode(decodeURIComponent(e)),c)}p.removeChild(t)}}catch(u){}}()/* ]]> */</script> \r\nFormat settings, BVOP : 2 \r\nFormat settings, QPel : No \r\nFormat settings, GMC : No warppoints \r\nFormat settings, Matrix : Default (H.263) \r\nCodec ID : V_MS/VFW/FOURCC / XVID \r\nCodec ID/Hint : XviD \r\nDuration : 1 h 45 min \r\nBit rate : 4 275 kb/s \r\nWidth : 1 920 pixels \r\nHeight : 1 080 pixels \r\nDisplay aspect ratio : 16:9 \r\nFrame rate mode : Constant \r\nFrame rate : 23.976 (23976/1000) FPS \r\nColor space : YUV \r\nChroma subsampling : 4:2:0 \r\nBit depth : 8 bits \r\nScan type : Progressive \r\nCompression mode : Lossy \r\nBits/(Pixel*Frame) : 0.086 \r\nStream size : 3.14 GiB (97%) \r\n\r\nAudio \r\nID : 2 \r\nFormat : MPEG Audio \r\nFormat version : Version 1 \r\nFormat profile : Layer 3 \r\nMode : Joint stereo \r\nMode extension : MS Stereo \r\nCodec ID : A_MPEG/L3 \r\nCodec ID/Hint : MP3 \r\nDuration : 1 h 45 min \r\nBit rate mode : Constant \r\nBit rate : 128 kb/s \r\nChannel(s) : 2 channels \r\nSampling rate : 44.1 kHz \r\nFrame rate : 38.281 FPS (1152 spf) \r\nCompression mode : Lossy \r\nStream size : 96.2 MiB (3%) \r\n\r\n..::ScreenShots::.. \r\n <a href=\"\nhttps://i.imgur.com/LhHNOIS.jpg\" rel=\"nofollow\" target=\"_NEW\">\nhttps://i.imgur.com/LhHNOIS.jpg</a>  <a href=\"\nhttps://i.imgur.com/39fQgh0.jpg\" rel=\"nofollow\" target=\"_NEW\">\nhttps://i.imgur.com/39fQgh0.jpg</a>  <a href=\"\nhttps://i.imgur.com/pYTeDWu.jpg\" rel=\"nofollow\" target=\"_NEW\">\nhttps://i.imgur.com/pYTeDWu.jpg</a> \r\n\r\n================================================================ \r\nSeed Seed Seed Seed Seed Seed Seed Seed Seed Seed Seed Seed Seed \r\nTo direct download or Watch Online this file, Visit. \r\r\nSeed Seed Seed Seed Seed Seed Seed Seed Seed Seed Seed Seed Seed \r\n================================================================","last_updated":"2017-07-07T12:03:23.889Z","parsed":{"xt":"urn:btih:8e2ad1c6a826172d623e0771e6cbdaed0abf3a80","dn":"Dragon Ball Z: Battle of Gods (EngDub) 1080p Download","tr":["udp://exodus.desync.com:6969","udp://open.demonii.com:1337","udp://tracker.coppersurfer.tk:6969","udp://tracker.leechers-paradise.org:6969","udp://zer0day.ch:1337"],"infoHash":"8e2ad1c6a826172d623e0771e6cbdaed0abf3a80","infoHashBuffer":{"type":"Buffer","data":[142,42,209,198,168,38,23,45,98,62,7,113,230,203,218,237,10,191,58,128]},"name":"Dragon Ball Z: Battle of Gods (EngDub) 1080p Download","announce":["udp://exodus.desync.com:6969","udp://open.demonii.com:1337","udp://tracker.coppersurfer.tk:6969","udp://tracker.leechers-paradise.org:6969","udp://zer0day.ch:1337"],"urlList":[]}}